<svg width="79" height="79" viewBox="0 0 79 79" fill="none" xmlns="http://www.w3.org/2000/svg">
<path d="M76.748 26.8918L51.7829 2.07717C50.4352 0.737746 48.638 0 46.7221 0C44.8064 0 43.009 0.73744 41.6614 2.07686L2.08974 41.4105C0.742212 42.7501 0 44.5363 0 46.4407C0 48.345 0.742212 50.1315 2.08974 51.4708L5.16823 54.5308C5.16854 54.5309 5.16869 54.5312 5.169 54.5316C5.16931 54.5319 5.16962 54.5322 5.16992 54.5325L25.8595 75.0975H22.9947C22.0877 75.0975 21.3523 75.8284 21.3523 76.7301C21.3523 77.6316 22.0877 78.3626 22.9947 78.3626H32.109C32.1112 78.3626 32.1132 78.3627 32.1153 78.3627C32.1175 78.3627 32.1195 78.3626 32.1216 78.3626L55.8436 78.3629C56.7506 78.3629 57.486 77.6319 57.486 76.7304C57.486 75.8287 56.7506 75.0978 55.8436 75.0978L38.3718 75.0975L76.7481 36.9521C79.5384 34.1783 79.5384 29.6652 76.748 26.8918ZM74.4253 34.6433L34.8533 73.9771C34.1276 74.6984 33.1575 75.096 32.1213 75.0975H32.1088C31.073 75.0958 30.1032 74.6984 29.3777 73.9771L8.65324 53.3772L46.6562 15.6026C47.2976 14.9651 47.2976 13.9313 46.6562 13.2938C46.0147 12.6563 44.975 12.6563 44.3333 13.294L6.33036 51.0686L4.41231 49.1621C3.68535 48.4395 3.28498 47.4731 3.28498 46.4408C3.28498 45.4086 3.68535 44.442 4.41247 43.7193L43.9841 4.38576C44.7112 3.66317 45.6836 3.26522 46.7221 3.26522C47.7606 3.26522 48.733 3.66317 49.4601 4.38592L58.3456 13.2178L20.3422 50.9928C19.7008 51.6302 19.7008 52.6639 20.3422 53.3017C20.6629 53.6204 21.0833 53.7797 21.5035 53.7797C21.9237 53.7797 22.3441 53.6202 22.6649 53.3016L60.6683 15.5267L74.4253 29.2004C75.9348 30.701 75.9346 33.1427 74.4253 34.6433Z" fill="#8F92A9"/>
<path d="M40.4681 47.1505C39.8267 46.513 38.787 46.5131 38.1452 47.1505L25.2205 59.9972C24.5792 60.6347 24.5792 61.6683 25.2205 62.3061C25.5413 62.6249 25.9617 62.7843 26.3819 62.7843C26.8021 62.7843 27.2225 62.6248 27.5433 62.3061L40.4679 49.4594C41.1094 48.8216 41.1094 47.788 40.4681 47.1505Z" fill="#8F92A9"/>
<path d="M35.1667 59.3456L29.8657 64.6147C29.2244 65.2522 29.2244 66.2859 29.8657 66.9236C30.1865 67.2422 30.6068 67.4017 31.0271 67.4017C31.4476 67.4017 31.8677 67.2422 32.1884 66.9236L37.4894 61.6545C38.1307 61.017 38.1307 59.9832 37.4894 59.3456C36.848 58.708 35.8085 58.708 35.1667 59.3456Z" fill="#8F92A9"/>
<path d="M40.0447 54.4975L39.3479 55.1899C38.7064 55.8274 38.7064 56.861 39.3477 57.4988C39.6683 57.8176 40.0889 57.9771 40.5091 57.9771C40.9293 57.9771 41.3497 57.8176 41.6703 57.4988L42.3671 56.8064C43.0086 56.1689 43.0086 55.1353 42.3672 54.4976C41.7262 53.8601 40.686 53.86 40.0447 54.4975Z" fill="#8F92A9"/>
<path d="M62.684 25.0684C62.376 24.7623 61.9583 24.5903 61.5226 24.5903C61.087 24.5903 60.6694 24.7623 60.3613 25.0684L53.3926 31.995C53.0847 32.3013 52.9116 32.7163 52.9116 33.1494C52.9116 33.5824 53.0847 33.9976 53.3926 34.3037L58.0384 38.9211C58.3591 39.2399 58.7795 39.3992 59.1997 39.3992C59.6203 39.3992 60.0404 39.2397 60.3611 38.9211L67.3294 31.9948C67.9708 31.3573 67.9708 30.3236 67.3294 29.6861L62.684 25.0684ZM59.1996 35.4581L56.8767 33.1494L61.5225 28.5317L63.8452 30.8406L59.1996 35.4581Z" fill="#8F92A9"/>
<path d="M49.3277 12.2717C49.7482 12.2717 50.1686 12.1122 50.4892 11.7932L51.186 11.1003C51.8272 10.4627 51.827 9.42889 51.1855 8.79155C50.5442 8.15421 49.504 8.15436 48.8628 8.79201L48.166 9.48491C47.5248 10.1226 47.525 11.1563 48.1665 11.7937C48.4872 12.1125 48.9073 12.2717 49.3277 12.2717Z" fill="#8F92A9"/>
<path d="M16.5095 54.8023L15.8127 55.4949C15.1714 56.1323 15.1714 57.166 15.8127 57.8038C16.1335 58.1225 16.5538 58.2818 16.9741 58.2818C17.3943 58.2818 17.8147 58.1225 18.1354 57.8038L18.8322 57.1112C19.4736 56.4736 19.4736 55.4398 18.8322 54.8023C18.1907 54.1647 17.151 54.1647 16.5095 54.8023Z" fill="#8F92A9"/>
</svg>
