<svg width="68" height="79" viewBox="0 0 68 79" fill="none" xmlns="http://www.w3.org/2000/svg">
<path d="M65.116 38.8654C64.0676 38.8654 63.2173 39.7152 63.2173 40.7629V74.5682H42.8428V53.3474C42.8428 52.2996 41.9925 51.4499 40.9441 51.4499H26.0709C25.0225 51.4499 24.1722 52.2996 24.1722 53.3474V70.174C24.1722 71.2217 25.0225 72.0715 26.0709 72.0715C27.1193 72.0715 27.9696 71.2217 27.9696 70.174V55.2449H39.0454V74.5682H3.79742V28.1238L33.5072 4.32959L63.9283 28.6933C64.7467 29.3489 65.9416 29.2167 66.5973 28.3992C67.253 27.5814 67.1213 26.3876 66.303 25.732L34.6945 0.416973C34.0008 -0.138991 33.0135 -0.138991 32.3199 0.416973L0.711383 25.732C0.261705 26.0922 7.24301e-08 26.6364 7.24301e-08 27.2127V76.4654C7.24301e-08 77.5131 0.849989 78.3629 1.89871 78.3629H65.116C66.1647 78.3629 67.0147 77.5131 67.0147 76.4654V40.7629C67.0147 39.7149 66.1647 38.8654 65.116 38.8654Z" fill="black"/>
</svg>
