<svg width="22" height="23" viewBox="0 0 22 23" fill="none" xmlns="http://www.w3.org/2000/svg">
<path d="M20.66 8.91599H18.6223C18.2947 8.91599 18.0249 8.72621 17.8995 8.40778C17.774 8.08935 17.8377 7.75394 18.0689 7.51023L19.5097 5.99409C19.7214 5.77119 19.838 5.47442 19.838 5.15939C19.838 4.84393 19.7214 4.54758 19.5097 4.32425L17.6732 2.39118C17.2496 1.94538 16.5111 1.94453 16.0868 2.39118L14.6464 3.90733C14.4148 4.15061 14.0954 4.21854 13.7937 4.08607C13.4911 3.95403 13.3108 3.66999 13.3108 3.32524V1.18031C13.3108 0.52944 12.8079 0 12.1895 0H9.59187C8.97352 0 8.47054 0.52944 8.47054 1.18031V3.32524C8.47054 3.66999 8.29023 3.95403 7.98771 4.08607C7.686 4.21896 7.36654 4.15061 7.13501 3.90733L5.69462 2.39118C5.27029 1.94453 4.53174 1.94538 4.10821 2.39118L2.27172 4.32425C2.05995 4.54715 1.94338 4.84393 1.94338 5.15939C1.94338 5.47442 2.05995 5.77077 2.27172 5.99409L3.71251 7.51023C3.94364 7.75394 4.00697 8.08935 3.88193 8.40778C3.75688 8.72621 3.48663 8.91599 3.15911 8.91599H1.12134C0.502988 8.91599 0 9.44543 0 10.0963V12.8301C0 13.4814 0.502988 14.0108 1.12134 14.0108H3.15911C3.48663 14.0108 3.75648 14.2006 3.88193 14.5191C4.00737 14.8375 3.94364 15.1729 3.71251 15.4166L2.27172 16.9327C2.05995 17.1556 1.94338 17.4524 1.94338 17.7674C1.94338 18.0829 2.05995 18.3792 2.27172 18.6026L4.10821 20.5356C4.53214 20.9819 5.27029 20.9827 5.69462 20.5356L7.13501 19.0191C7.36654 18.7758 7.68479 18.7087 7.98771 18.8408C8.29023 18.9728 8.47054 19.2568 8.47054 19.6016V21.7465C8.47054 22.3974 8.97352 22.9268 9.59187 22.9268H12.1891C12.8074 22.9268 13.3104 22.3974 13.3104 21.7465V19.6016C13.3104 19.2568 13.4907 18.9728 13.7933 18.8408C14.0962 18.7083 14.4144 18.7758 14.646 19.0191L16.0864 20.5356C16.5107 20.9823 17.2492 20.9814 17.6728 20.5356L19.5093 18.6026C19.721 18.3797 19.8376 18.0829 19.8376 17.7674C19.8376 17.4524 19.721 17.1561 19.5093 16.9327L18.0685 15.4166C17.8373 15.1729 17.774 14.8375 17.899 14.5191C18.0241 14.2006 18.2947 14.0108 18.6223 14.0108H20.66C21.2784 14.0108 21.7814 13.4814 21.7814 12.8305V10.0963C21.7814 9.44543 21.2784 8.91599 20.66 8.91599ZM20.9747 12.8305C20.9747 13.0131 20.8335 13.1617 20.66 13.1617H18.6223C17.9672 13.1617 17.4045 13.5574 17.154 14.1943C16.9032 14.8311 17.0351 15.53 17.4985 16.0174L18.9393 17.5335C19.0623 17.663 19.0623 17.8732 18.9393 18.0022L17.1028 19.9353C16.9802 20.0644 16.7805 20.0652 16.6575 19.9353L15.2171 18.4187C14.7537 17.9309 14.0901 17.7929 13.4851 18.0562C12.8801 18.3198 12.5041 18.9121 12.5041 19.6016V21.7465C12.5041 21.9291 12.3629 22.0777 12.1895 22.0777H9.59187C9.41843 22.0777 9.27725 21.9291 9.27725 21.7465V19.6016C9.27725 18.9121 8.90132 18.3198 8.29628 18.0562C8.0934 17.9674 7.88445 17.9241 7.67794 17.9241C7.26893 17.9241 6.87243 18.0939 6.56426 18.4183L5.12387 19.9349C5.00044 20.0648 4.80078 20.0639 4.67856 19.9349L2.84207 18.0018C2.71904 17.8723 2.71904 17.6621 2.84207 17.5331L4.28286 16.0169C4.74592 15.5295 4.87822 14.8307 4.62733 14.1938C4.37685 13.5574 3.81416 13.1617 3.15911 13.1617H1.12134C0.947893 13.1617 0.806718 13.0131 0.806718 12.8305V10.0963C0.806718 9.91373 0.947893 9.76513 1.12134 9.76513H3.15911C3.81416 9.76513 4.37685 9.36943 4.62733 8.73257C4.87822 8.09572 4.74632 7.39687 4.28286 6.90947L2.84207 5.39332C2.71904 5.26383 2.71904 5.05367 2.84207 4.9246L4.67856 2.99153C4.80118 2.86203 5.00084 2.86203 5.12387 2.99153L6.56426 4.50767C7.02691 4.99465 7.69044 5.13434 8.29628 4.87025C8.90132 4.60702 9.27725 4.01474 9.27725 3.32524V1.18031C9.27725 0.997742 9.41843 0.849142 9.59187 0.849142H12.1891C12.3629 0.849142 12.5041 0.997742 12.5041 1.18031V3.32524C12.5041 4.01474 12.8801 4.60702 13.4851 4.87068C14.0909 5.13476 14.7541 4.9955 15.2171 4.50809L16.6575 2.99195C16.7809 2.86246 16.9806 2.86246 17.1028 2.99195L18.9393 4.92502C19.0623 5.05452 19.0623 5.26468 18.9393 5.39375L17.4985 6.90989C17.0355 7.3973 16.9032 8.09614 17.154 8.733C17.4045 9.36985 17.9672 9.76556 18.6223 9.76556H20.66C20.8335 9.76513 20.9747 9.91373 20.9747 10.0963V12.8305Z" fill="black"/>
<path d="M10.89 7.64233C8.88813 7.64233 7.25977 9.35633 7.25977 11.4635C7.25977 13.5706 8.88813 15.2846 10.89 15.2846C12.8919 15.2846 14.5202 13.5706 14.5202 11.4635C14.5202 9.35633 12.8919 7.64233 10.89 7.64233ZM10.89 14.4355C9.33343 14.4355 8.06648 13.1019 8.06648 11.4635C8.06648 9.82505 9.33343 8.49148 10.89 8.49148C12.4466 8.49148 13.7135 9.82505 13.7135 11.4635C13.7135 13.1019 12.4466 14.4355 10.89 14.4355Z" fill="black"/>
</svg>
