<svg width="79" height="79" viewBox="0 0 79 79" fill="none" xmlns="http://www.w3.org/2000/svg">
<path d="M39.4999 79C17.7205 79 0 61.281 0 39.5002C0 17.7192 17.7205 0 39.4999 0C61.2795 0 79 17.7192 79 39.5002C79 61.281 61.2795 79 39.4999 79ZM39.4999 2.54829C19.1241 2.54829 2.54828 19.1254 2.54828 39.5002C2.54828 59.875 19.1241 76.4519 39.4999 76.4519C59.8759 76.4519 76.4517 59.875 76.4517 39.5002C76.4517 19.1254 59.8759 2.54829 39.4999 2.54829Z" fill="#8F92A9"/>
<path d="M32.1993 56.3487L18.0784 42.2277L19.8803 40.4261L32.1993 52.7449L59.0126 25.9326L60.8145 27.7343L32.1993 56.3487Z" fill="#8F92A9"/>
</svg>
